<?xml version="1.0" standalone="no"?>
<!DOCTYPE svg PUBLIC "-//W3C//DTD SVG 1.1//EN" "http://www.w3.org/Graphics/SVG/1.1/DTD/svg11.dtd" >
<svg xmlns="http://www.w3.org/2000/svg">
<metadata></metadata>
<defs>
<font id="adelle_sansheavy_italic" horiz-adv-x="1312" >
<font-face units-per-em="2048" ascent="1546" descent="-502" />
<missing-glyph horiz-adv-x="274" />
<glyph unicode="&#xfb01;" horiz-adv-x="1318" d="M-47 -434h432l174 1220h252l-111 -786h433l151 1081h-686l10 56q13 77 34 106t79 29q25 0 65 -12l50 272q-28 14 -88 27.5t-121 13.5q-194 0 -306.5 -89.5t-140.5 -299.5l-14 -103h-133l-39 -293h133zM868 1360q0 128 73.5 200t201.5 72q103 0 157 -50.5t54 -145.5 q0 -128 -73.5 -202.5t-203.5 -74.5q-100 0 -154.5 53t-54.5 148z" />
<glyph unicode="&#xfb02;" horiz-adv-x="1318" d="M-47 -434l174 1222h-133l39 293h133l14 103q28 209 145.5 299t313.5 90q123 0 213 -35l-55 -276q-38 10 -68 10q-59 0 -83.5 -30t-37.5 -105l-10 -56h182l-43 -293h-178l-174 -1222h-432zM700 0l218 1546h432l-217 -1546h-433z" />
<glyph unicode="&#xfb03;" horiz-adv-x="2002" d="M-47 -434h432l174 1222h252l-174 -1222h432l174 1220h252l-111 -786h433l151 1081h-686l10 56q13 77 34 106t79 29q25 0 65 -12l50 272q-28 14 -88 27.5t-121 13.5q-194 0 -306.5 -89.5t-140.5 -299.5l-14 -103h-252l10 56q13 75 37.5 105t83.5 30q44 0 82 -12l55 276 q-35 13 -101 25t-126 12q-196 0 -313.5 -90t-145.5 -299l-14 -103h-133l-39 -293h133zM1552 1360q0 128 73.5 200t201.5 72q103 0 157 -50.5t54 -145.5q0 -128 -73.5 -202.5t-203.5 -74.5q-100 0 -154.5 53t-54.5 148z" />
<glyph unicode="&#xfb04;" horiz-adv-x="2004" d="M-47 -434l174 1222h-133l39 293h133l14 103q28 209 145.5 299t313.5 90q61 0 126 -11t99 -24l-55 -276q-29 10 -80 10q-59 0 -83.5 -30t-37.5 -105l-10 -56h254l14 103q28 209 145.5 299t313.5 90q123 0 213 -35l-55 -276q-38 10 -68 10q-59 0 -83.5 -30t-37.5 -105 l-10 -56h182l-43 -293h-178l-174 -1222h-432l174 1222h-254l-174 -1222h-432zM1386 0l218 1546h432l-217 -1546h-433z" />
<glyph horiz-adv-x="0" />
<glyph horiz-adv-x="682" />
<glyph unicode=" "  horiz-adv-x="274" />
<glyph unicode="&#x09;" horiz-adv-x="274" />
<glyph unicode="&#xa0;" horiz-adv-x="274" />
<glyph unicode="!" horiz-adv-x="659" d="M10 135q0 109 65 169.5t195 60.5q101 0 152 -43t51 -123q0 -106 -64.5 -165t-191.5 -59q-207 0 -207 160zM92 422l107 1061h460l-190 -1061h-377z" />
<glyph unicode="&#x22;" horiz-adv-x="978" d="M82 952l74 531h368l-73 -531h-369zM541 952l73 531h369l-74 -531h-368z" />
<glyph unicode="#" horiz-adv-x="1241" d="M-10 274l96 281h158l47 160h-174l96 280h160l80 285h278l-80 -285h107l82 285h276l-80 -285h178l-94 -280h-166l-47 -160h180l-94 -281h-168l-82 -274h-278l82 274h-107l-82 -274h-278l82 274h-172zM522 555h107l47 160h-107z" />
<glyph unicode="$" horiz-adv-x="1200" d="M-31 410l373 55q0 -38 9 -70t30 -61t62.5 -45.5t99.5 -16.5q63 0 109 31t46 92q0 15 -3.5 28.5t-13 25t-17.5 20.5t-26 18t-29.5 15t-36 14.5t-37 12.5t-42.5 13t-42 13q-44 14 -75 25t-72.5 30.5t-70.5 40t-59.5 52.5t-49 68.5t-30.5 87.5t-12 110q0 186 110 307 t300 170l26 176h367l-25 -186q296 -85 299 -392l-389 -40q0 147 -129 147q-141 0 -141 -109q0 -28 15.5 -50t49 -38.5t64.5 -27.5t84 -27q9 -3 14 -4q48 -14 78.5 -24.5t77 -30t76.5 -39.5t64 -51.5t54 -68t33.5 -87t13.5 -109.5q0 -115 -39.5 -206.5t-109 -151t-157 -94.5 t-191.5 -47l-23 -158h-364l26 172q-164 58 -229.5 158t-67.5 252z" />
<glyph unicode="%" horiz-adv-x="1812" d="M70 1067q0 99 23 177t72 138.5t133 93.5t200 33q325 0 325 -303q0 -196 -110.5 -318t-309.5 -122q-180 0 -256.5 79t-76.5 222zM152 -23l1108 1506h368l-1106 -1506h-370zM381 1077q0 -56 12.5 -77t40.5 -21q84 0 84 229q0 49 -11.5 67.5t-35.5 18.5q-43 0 -66.5 -49 t-23.5 -168zM981 274q0 98 23 176t71.5 139.5t132.5 94.5t199 33q328 0 328 -305q0 -195 -111.5 -317t-308.5 -122q-180 0 -257 79t-77 222zM1290 283q0 -54 14 -76.5t42 -22.5q84 0 84 232q0 86 -48 86q-92 0 -92 -219z" />
<glyph unicode="&#x26;" horiz-adv-x="1613" d="M-20 369q0 162 92 272.5t295 179.5q-48 99 -48 193q0 138 79.5 241.5t207.5 155t283 51.5q86 0 157 -16.5t128 -50t88.5 -92t31.5 -136.5q0 -274 -407 -415q59 -95 162 -217q32 81 47 227h381q-23 -240 -172 -414q46 -17 104 -20q41 0 64 4l32 -316q-85 -28 -215 -28 q-196 0 -348 88q-67 -42 -183.5 -71.5t-258.5 -29.5q-131 0 -232.5 31.5t-163 86.5t-93 125t-31.5 151zM410 426q0 -81 57.5 -126.5t155.5 -45.5q46 0 82 8q-139 136 -230 311q-65 -54 -65 -147zM750 1100q0 -55 36 -125q148 72 148 149q0 43 -23 62.5t-59 19.5 q-41 0 -71.5 -24.5t-30.5 -81.5z" />
<glyph unicode="'" horiz-adv-x="520" d="M82 952l74 531h368l-73 -531h-369z" />
<glyph unicode="(" horiz-adv-x="835" d="M23 420q0 160 29.5 301.5t91 272t135 242t182.5 247.5h485q-61 -74 -97.5 -120t-91 -122.5t-87.5 -135.5t-72 -142.5t-60.5 -161.5t-36 -174.5t-14.5 -198.5q0 -355 191 -741h-457q-85 138 -141.5 331.5t-56.5 401.5z" />
<glyph unicode=")" horiz-adv-x="835" d="M-160 -313q61 75 97 120.5t91 122t88 135t72 142.5t60.5 161.5t36 174t14.5 198.5q0 358 -190 742h456q86 -138 142.5 -331.5t56.5 -401.5q0 -160 -29.5 -301.5t-91 -272t-135 -242t-182.5 -247.5h-486z" />
<glyph unicode="*" horiz-adv-x="985" d="M125 1169l90 201l209 -51l63 227h209l-4 -227l219 53l31 -201l-205 -100l103 -199l-170 -124l-158 172l-201 -179l-161 127l157 203z" />
<glyph unicode="+" horiz-adv-x="1167" d="M147 508l43 313h244l39 266h320l-37 -266h248l-43 -313h-248l-39 -275h-320l37 275h-244z" />
<glyph unicode="," horiz-adv-x="653" d="M-113 -260l224 582h440l-320 -617z" />
<glyph unicode="-" horiz-adv-x="632" d="M6 422l49 340h555l-49 -340h-555z" />
<glyph unicode="." horiz-adv-x="622" d="M-6 156q0 262 280 262q209 0 209 -182q0 -125 -66.5 -193t-205.5 -68q-217 0 -217 181z" />
<glyph unicode="/" horiz-adv-x="1038" d="M-109 -188l820 1734h391l-817 -1734h-394z" />
<glyph unicode="0" horiz-adv-x="1243" d="M27 516q0 102 8 196t29.5 195.5t55 187t88.5 163.5t126.5 132.5t172 86.5t222.5 32q264 0 377 -133t113 -401q0 -102 -8.5 -197.5t-30.5 -197t-56 -188t-87.5 -165t-123 -133.5t-165.5 -87t-211 -32q-275 0 -392.5 130t-117.5 411zM473 416q0 -72 21 -102.5t63 -30.5 t70.5 32t56 128t53.5 272q3 25 10.5 75t11 76.5t7.5 65t6 71t2 64.5q0 74 -20 104.5t-62 30.5q-43 0 -72 -32t-57.5 -133.5t-56.5 -291.5q-33 -245 -33 -329z" />
<glyph unicode="1" horiz-adv-x="976" d="M113 952v351q139 11 277.5 58.5t223.5 121.5h316l-209 -1483h-432l145 1012q-48 -24 -154.5 -42t-166.5 -18z" />
<glyph unicode="2" horiz-adv-x="1159" d="M-31 0l51 356l340 336q202 200 250 256q79 94 80 156q0 36 -21.5 59t-58.5 23q-58 0 -85 -39.5t-58 -136.5l-397 61q17 115 66.5 200t126 136.5t172.5 76.5t214 25q248 0 374 -100.5t126 -267.5q0 -43 -4.5 -78.5t-21 -74t-30.5 -66.5t-51 -71t-63 -71.5t-87 -85 t-103 -93t-128 -112.5q-21 -19 -32 -28l-99 -84v-17h521l-52 -360h-1030z" />
<glyph unicode="3" horiz-adv-x="1163" d="M-35 381l385 76q0 -79 34 -121.5t97 -42.5q73 0 118.5 47.5t45.5 132.5q0 69 -34 95t-115 26h-160l41 307h96q240 0 240 191q0 45 -26.5 73.5t-72.5 28.5q-61 0 -98 -37t-59 -117l-379 70q107 399 598 399q226 0 346.5 -85t120.5 -253q0 -126 -92.5 -224.5t-225.5 -149.5 v-9q129 -36 192.5 -110.5t63.5 -194.5q0 -239 -166.5 -373.5t-453.5 -134.5q-481 0 -496 406z" />
<glyph unicode="4" d="M2 299l41 295l649 889h537l-119 -850h158l-45 -334h-160l-43 -299h-418l43 299h-643zM414 633h276l70 487z" />
<glyph unicode="5" horiz-adv-x="1183" d="M-31 389l379 62q-4 -76 30 -116t101 -40q79 0 126.5 59t47.5 160q0 40 -10 66t-28.5 37t-33 14.5t-34.5 3.5q-88 0 -168 -88l-291 112l168 824h872l-51 -353h-547l-73 -280q125 98 301 98q154 0 239.5 -92t85.5 -268q0 -119 -33 -220t-91 -172.5t-135.5 -122t-167 -74.5 t-185.5 -24q-108 0 -194 21.5t-155.5 68.5t-109 129t-43.5 195z" />
<glyph unicode="6" horiz-adv-x="1208" d="M47 549q0 84 8.5 168.5t31 181t58 182t93.5 165.5t132 137t180 91.5t232 34.5q86 0 158.5 -20t134 -63t100.5 -118t48 -178l-392 -94q2 92 -21 133t-81 41q-80 0 -142.5 -89.5t-88.5 -284.5q135 75 288 75q73 0 134 -19t111.5 -60t79 -114t28.5 -171q0 -117 -33.5 -214 t-90 -162t-132.5 -110t-158.5 -65.5t-169.5 -20.5q-143 0 -243.5 40.5t-157.5 119t-82 179.5t-25 235zM475 430q0 -76 23 -111.5t80 -35.5q54 0 83 59t29 162q0 56 -19.5 83t-68.5 27q-57 0 -117 -32q-10 -95 -10 -152z" />
<glyph unicode="7" horiz-adv-x="1124" d="M-27 -2l693 1132h-547l51 353h1014l-45 -316l-693 -1169h-473z" />
<glyph unicode="8" horiz-adv-x="1265" d="M-20 340q0 145 88.5 245t238.5 150q-92 67 -131 139.5t-39 174.5q0 112 49.5 201.5t134.5 145t194.5 84.5t234.5 29q224 0 354.5 -87.5t130.5 -233.5q0 -65 -19.5 -119.5t-58.5 -98.5t-81.5 -77t-104.5 -70q221 -121 221 -329q0 -103 -43 -195.5t-124.5 -165t-212 -115.5 t-292.5 -43q-258 0 -399 96.5t-141 268.5zM403 412q0 -55 42.5 -92t105.5 -37q66 0 115 36.5t49 108.5q0 55 -45 88.5t-152 75.5q-115 -78 -115 -180zM604 1116q0 -93 133 -155q43 39 67.5 85t24.5 87q0 50 -32 73t-78 23q-59 0 -87 -34.5t-28 -78.5z" />
<glyph unicode="9" horiz-adv-x="1218" d="M-35 352l393 101q2 -27 5 -46.5t11.5 -44.5t21.5 -41t36 -27t53 -11q158 0 220 368q-88 -73 -265 -73q-73 0 -137.5 21t-117.5 63.5t-84 115t-31 166.5q0 122 34 220t89.5 161t131 105.5t154.5 60.5t164 18q263 0 388.5 -152.5t125.5 -422.5q0 -156 -21 -291.5 t-71.5 -260.5t-127.5 -213.5t-195.5 -141t-268.5 -52.5q-215 0 -351 91t-157 286zM516 1004q0 -125 111 -125q59 0 92 26q12 106 12 142q0 77 -21 115t-71 38q-123 0 -123 -196z" />
<glyph unicode=":" horiz-adv-x="716" d="M41 156q0 262 281 262q208 0 208 -182q0 -125 -66.5 -193t-205.5 -68q-217 0 -217 181zM145 782q0 262 281 262q209 0 209 -182q0 -125 -67 -192.5t-206 -67.5q-217 0 -217 180z" />
<glyph unicode=";" horiz-adv-x="729" d="M-102 -260l223 582h440l-319 -617zM178 782q0 262 281 262q209 0 209 -182q0 -125 -67 -192.5t-206 -67.5q-217 0 -217 180z" />
<glyph unicode="&#x3c;" horiz-adv-x="1165" d="M70 416l51 372l860 265l-47 -334l-524 -115l489 -133l-45 -324z" />
<glyph unicode="=" horiz-adv-x="1167" d="M102 205l43 311h816l-43 -311h-816zM164 637l45 311h813l-45 -311h-813z" />
<glyph unicode="&#x3e;" horiz-adv-x="1165" d="M123 150l45 337l526 129l-491 121l47 316l786 -265l-53 -372z" />
<glyph unicode="?" horiz-adv-x="1251" d="M92 1057q52 231 219.5 345t433.5 114q80 0 151.5 -14t136 -45t110.5 -78t73 -116.5t27 -156.5q0 -416 -485 -549l-19 -135h-434l53 383q65 5 118 13.5t112 28t99 47.5t66.5 75t26.5 108q0 46 -25.5 73.5t-74.5 27.5q-74 0 -110 -44.5t-62 -138.5zM250 135q0 109 65 169.5 t195 60.5q100 0 150.5 -43.5t50.5 -122.5q0 -106 -63.5 -165t-190.5 -59q-207 0 -207 160z" />
<glyph unicode="@" horiz-adv-x="1773" d="M6 285q0 283 123 494t345 322t515 111q331 0 520 -164.5t189 -439.5q0 -154 -43 -277.5t-117 -201t-169.5 -118t-203.5 -40.5q-95 0 -154.5 32t-78.5 81q-103 -100 -240 -100q-111 0 -173 85t-62 226q0 145 53 263.5t149.5 186.5t217.5 68q104 0 149 -70l33 58h205 l-97 -553q-10 -64 60 -64q54 0 94 37t60 86t32 113.5t14.5 103t2.5 70.5q0 78 -25.5 144.5t-77.5 121t-141.5 86t-208.5 31.5q-162 0 -288 -44.5t-201 -113t-123 -162t-65 -181.5t-17 -181q0 -231 129 -360.5t342 -129.5q93 0 171 14.5t177 45.5l61 -221q-208 -72 -461 -72 q-202 0 -357.5 81t-247 244t-91.5 388zM727 338q0 -74 18.5 -114t65.5 -40q26 0 45.5 7.5t58.5 31.5l66 369q-9 13 -30.5 21t-41.5 8q-81 0 -131.5 -72t-50.5 -211z" />
<glyph unicode="A" horiz-adv-x="1517" d="M-109 0l689 1483h540l326 -1483h-475l-58 287h-426l-125 -287h-471zM596 623h276l-73 450h-13z" />
<glyph unicode="B" horiz-adv-x="1331" d="M10 0l211 1483h664q112 0 193.5 -26t127.5 -71.5t67 -101t21 -121.5q0 -289 -319 -387v-6q147 -15 220 -91t73 -204q0 -102 -32.5 -183t-90 -135t-139 -90t-175 -51.5t-202.5 -15.5h-619zM500 303h73q119 0 171.5 37.5t52.5 140.5q0 65 -37.5 89t-102.5 24h-116zM584 899 h22q49 0 82.5 3t67 13t53 28.5t31.5 49.5t12 76q0 102 -152 102h-77z" />
<glyph unicode="C" horiz-adv-x="1464" d="M51 610q0 196 53 359t155 284t262.5 188.5t365.5 67.5q287 0 439 -148q140 -136 139 -382q0 -21 -1 -43l-407 -39q2 26 2 50q1 98 -39 154q-50 70 -160 70q-168 0 -256 -137.5t-88 -415.5q0 -157 55.5 -230t173.5 -73q49 0 89 13t66.5 32.5t48.5 51t34.5 59.5t26.5 66 l387 -62q-30 -136 -99.5 -236t-166 -156t-203 -82t-228.5 -26q-164 0 -289 46t-203 131t-117.5 200t-39.5 258z" />
<glyph unicode="D" horiz-adv-x="1492" d="M10 0l211 1483h588q331 0 490 -153.5t159 -434.5q0 -155 -34 -289t-105.5 -246t-176 -192t-252 -124t-327.5 -44h-553zM506 336h82q217 0 317.5 125t100.5 405q0 156 -64.5 220.5t-214.5 64.5h-106z" />
<glyph unicode="E" horiz-adv-x="1220" d="M10 0l211 1483h1020l-47 -346h-576l-34 -236h544l-49 -340h-544l-31 -213h626l-49 -348h-1071z" />
<glyph unicode="F" horiz-adv-x="1155" d="M10 0l211 1483h1012l-49 -346h-568l-36 -263h516l-49 -337h-517l-75 -537h-445z" />
<glyph unicode="G" horiz-adv-x="1538" d="M51 575q0 158 33.5 298t102.5 257t168.5 201t239 131t306.5 47q281 0 429 -131t147 -399l-418 -39q1 18 1 34q0 197 -188 197q-82 0 -144.5 -29.5t-101.5 -80t-64 -124.5t-34.5 -154.5t-9.5 -178.5q0 -67 11 -117.5t36 -91.5t71 -62.5t112 -21.5q214 0 237 166l2 10h-149 l41 289h596l-113 -776h-322l-18 166q-66 -97 -183.5 -144t-248.5 -47q-141 0 -246 45.5t-168.5 127.5t-94 189t-30.5 238z" />
<glyph unicode="H" horiz-adv-x="1523" d="M10 0l211 1483h445l-80 -565h420l79 565h447l-211 -1483h-444l75 549h-420l-75 -549h-447z" />
<glyph unicode="I" horiz-adv-x="657" d="M10 0l211 1483h445l-211 -1483h-445z" />
<glyph unicode="J" horiz-adv-x="1191" d="M-18 453l440 61q1 -46 4.5 -77t12.5 -62.5t29 -47.5t50 -16q46 0 66 29t30 92l150 1051h444l-145 -1028q-35 -249 -176.5 -364.5t-405.5 -115.5q-83 0 -152.5 13t-135.5 46t-111.5 85.5t-73.5 137.5q-26 82 -26 188v8z" />
<glyph unicode="K" horiz-adv-x="1447" d="M10 0l211 1483h443l-80 -572l536 572h494l-586 -615l330 -868h-492l-196 563l-158 -153l-59 -410h-443z" />
<glyph unicode="L" horiz-adv-x="1204" d="M10 0l211 1483h445l-160 -1123h610l-51 -360h-1055z" />
<glyph unicode="M" horiz-adv-x="1927" d="M10 0l211 1483h658l55 -920h18l328 920h653l-211 -1483h-411l151 1055h-14l-399 -1055h-383l-86 1061h-15l-149 -1061h-406z" />
<glyph unicode="N" horiz-adv-x="1538" d="M10 0l211 1483h494l307 -899h10l117 899h397l-211 -1483h-499l-291 866l-13 2l-120 -868h-402z" />
<glyph unicode="O" horiz-adv-x="1570" d="M51 600q0 145 33 278t103 248t169.5 200t240.5 134t308 49q139 0 248.5 -34t181 -92t118 -142t66 -177.5t19.5 -203.5q0 -138 -31.5 -265.5t-99.5 -241t-166 -197t-240 -132.5t-313 -49q-138 0 -246.5 31.5t-181.5 86.5t-120.5 134.5t-68 171.5t-20.5 201zM506 612 q0 -60 12 -110.5t38 -92.5t72 -66t109 -24q62 0 113.5 21t86.5 55.5t61.5 83t42 97.5t25 106t12.5 102t3 90q0 57 -10.5 105.5t-34.5 91t-68 66.5t-104 24q-64 0 -117.5 -19.5t-90 -51.5t-64 -78t-43.5 -93.5t-26 -104t-13.5 -104t-3.5 -98.5z" />
<glyph unicode="P" horiz-adv-x="1292" d="M10 0l211 1483h572q120 0 211 -23t147 -61t91 -94t48 -115t13 -131q0 -138 -40.5 -250t-123 -196t-216 -129.5t-309.5 -45.5h-100l-61 -438h-443zM561 766h43q53 0 92.5 10.5t73 36t51 74t17.5 119.5q0 143 -144 143h-76z" />
<glyph unicode="Q" horiz-adv-x="1570" d="M51 600q0 145 33 278t103 248t169.5 200t240.5 134t308 49q139 0 248.5 -34t181 -92t118 -142t66 -177.5t19.5 -203.5q0 -257 -110 -469.5t-324 -322.5q111 -117 282 -117q32 0 66 4l-86 -344q-46 -6 -90 -6q-162 0 -294 83q-167 107 -251 289q-14 -2 -43 -2 q-138 0 -246.5 31.5t-181.5 86.5t-120.5 134.5t-68 171.5t-20.5 201zM506 612q0 -60 12 -110.5t38 -92.5t72 -66t109 -24q62 0 113.5 21t86.5 55.5t61.5 83t42 97.5t25 106t12.5 102t3 90q0 57 -10.5 105.5t-34.5 91t-68 66.5t-104 24q-64 0 -117.5 -19.5t-90 -51.5t-64 -78 t-43.5 -93.5t-26 -104t-13.5 -104t-3.5 -98.5z" />
<glyph unicode="R" horiz-adv-x="1355" d="M10 0l211 1483h629q128 0 223 -31t148.5 -86t78.5 -121t25 -145q0 -176 -75 -286.5t-220 -178.5l225 -635h-481l-172 528h-72l-77 -528h-443zM573 844h60q223 0 223 190q0 117 -143 117h-95z" />
<glyph unicode="S" horiz-adv-x="1269" d="M-39 469l412 53q0 -40 2.5 -67.5t14 -61t31.5 -54t57.5 -34.5t90.5 -14q88 0 138.5 34t50.5 103q0 19 -7.5 35.5t-26 30t-34 22.5t-49.5 20.5t-54 17t-63 17.5q-41 12 -66 19.5t-65.5 22t-66.5 27.5t-61 33.5t-57 42.5t-46 52.5t-38 64.5t-23 77.5t-9 93.5 q0 155 87.5 271.5t231 175t320.5 58.5q94 0 170 -11.5t146 -41.5t117 -78q46 -50 72 -128q24 -71 24 -160v-21l-410 -43v9q0 83 -34 121q-36 40 -124 40q-72 0 -111.5 -28t-39.5 -81q0 -69 123 -112q27 -9 80.5 -24t90 -26t88.5 -31.5t87 -41.5t74.5 -56t63 -75t39 -97 t15.5 -124q0 -105 -36.5 -192.5t-98.5 -148t-146 -103t-178.5 -62t-195.5 -19.5q-59 0 -109.5 3.5t-113.5 16t-113 33.5t-100 58.5t-83 87.5q-32 50 -51 126q-16 65 -16 144v25z" />
<glyph unicode="T" d="M70 1124l51 359h1300l-51 -359h-426l-160 -1124h-444l160 1124h-430z" />
<glyph unicode="U" horiz-adv-x="1447" d="M72 604l125 879h446l-121 -852q-10 -69 -13 -103q-2 -17 -1.5 -37.5t1.5 -44.5q3 -50 20 -72.5t54 -40.5t95 -18q34 0 61 4t48 15.5t36 22.5t27 34.5t20 41.5t15.5 54t12 62t11.5 74l125 860h443l-129 -942q-22 -161 -81 -273.5t-153.5 -175.5t-209 -90t-265.5 -27 q-344 -1 -478 153q-100 115 -100 325q0 70 11 151z" />
<glyph unicode="V" horiz-adv-x="1449" d="M86 1483h481l125 -1055h21l409 1055h475l-661 -1483h-598z" />
<glyph unicode="W" horiz-adv-x="2134" d="M111 1483h464l21 -1034h12l350 1034h459l84 -1030h15l290 1030h449l-535 -1483h-569l-39 852h-12l-281 -852h-604z" />
<glyph unicode="X" horiz-adv-x="1398" d="M-129 0l580 741l-347 742h480l178 -422l303 422h469l-576 -746l375 -737h-510l-178 383l-287 -383h-487z" />
<glyph unicode="Y" horiz-adv-x="1335" d="M55 1483h463l189 -553h14l319 553h469l-620 -942q-15 -118 -74 -541h-448l79 547z" />
<glyph unicode="Z" horiz-adv-x="1234" d="M-55 0l41 301l739 836h-606l49 346h1114l-45 -309l-715 -828h623l-49 -346h-1151z" />
<glyph unicode="[" horiz-adv-x="747" d="M-33 -293l252 1776h582l-35 -238h-160l-182 -1302h160l-33 -236h-584z" />
<glyph unicode="\" horiz-adv-x="1048" d="M170 1546h393l332 -1734h-395z" />
<glyph unicode="]" horiz-adv-x="747" d="M-68 -293l35 238h160l182 1302h-159l32 236h584l-252 -1776h-582z" />
<glyph unicode="^" horiz-adv-x="1628" d="M186 612l404 748h436l408 -748h-408l-221 400l-215 -400h-404z" />
<glyph unicode="_" horiz-adv-x="1024" d="M-123 -72h1024v-299h-1024v299z" />
<glyph unicode="`" horiz-adv-x="1024" d="M508 1513h440l60 -329l-281 -13z" />
<glyph unicode="a" d="M4 401q0 158 35.5 284t90 202.5t126.5 127t139 70t133 19.5q92 0 150.5 -26t105.5 -77l17 80h407l-110 -770q-6 -42 5 -58.5t48 -16.5q19 0 63 12l-20 -223q-37 -18 -120 -35t-142 -17q-107 0 -165 33t-83 105q-116 -136 -301 -136q-177 0 -278 105.5t-101 320.5z M469 455q0 -69 27.5 -111.5t87.5 -42.5q44 0 84 21l61 428q-30 28 -80 28q-51 0 -88 -31t-56 -82t-27.5 -103t-8.5 -107z" />
<glyph unicode="b" horiz-adv-x="1230" d="M-37 0l217 1546h424l-78 -557q118 115 301 115q72 0 131 -23t106.5 -70.5t74 -130.5t26.5 -194q0 -178 -38 -316t-105.5 -223t-157 -128.5t-196.5 -43.5q-101 0 -176 40t-109 98q-2 0 -5.5 -1t-6.5 -1l-31 -111h-377zM440 340q38 -35 113 -35q70 0 109.5 76.5t39.5 234.5 t-110 158q-52 0 -96 -33z" />
<glyph unicode="c" horiz-adv-x="1136" d="M2 446q0 305 166 481.5t463 176.5q231 0 349 -122q111 -115 110 -310v-27l-369 -24q2 18 2 37q0 14 -1 28q-3 32 -10.5 58t-29 42.5t-55.5 16.5q-51 0 -87 -38.5t-52 -100.5t-22.5 -116.5t-6.5 -109.5q0 -149 106 -149q61 0 98 49t50 115l350 -54q-48 -217 -190.5 -320.5 t-356.5 -103.5q-124 0 -222.5 36t-161.5 99.5t-96.5 149t-33.5 186.5z" />
<glyph unicode="d" horiz-adv-x="1239" d="M6 403q0 149 33 270.5t86 200t123 132t141 76t143 22.5q91 0 152 -27t107 -78l73 547h412l-217 -1546h-367l-2 104q-1 0 -3 2.5t-3 2.5q-115 -134 -307 -134q-175 0 -273 105.5t-98 322.5zM471 453q0 -70 27.5 -114t89.5 -44q45 0 84 31l61 422q-32 30 -84 30 q-51 0 -88 -32.5t-55.5 -85t-26.5 -104t-8 -103.5z" />
<glyph unicode="e" horiz-adv-x="1114" d="M2 438q0 138 35.5 250.5t96 188.5t143 128t174.5 75.5t192 23.5q113 0 195.5 -24t129 -68.5t68 -99t21.5 -121.5q0 -196 -180 -287q-141 -73 -418 -96q2 -27 5.5 -44.5t13 -38.5t30 -31.5t51.5 -10.5q53 0 83 29t50 87l338 -86q-53 -152 -189 -245t-349 -93 q-132 0 -229.5 37.5t-153 103.5t-81.5 146t-26 176zM477 662q22 1 36 3t19 3.5t7 1.5q108 23 108 94q0 25 -14.5 42t-38.5 17q-97 0 -117 -161z" />
<glyph unicode="f" horiz-adv-x="829" d="M-47 -434l172 1222h-133l41 293h133l14 103q52 389 496 389q101 0 181 -18.5t112 -36.5l-58 -273q-81 29 -143 29q-36 0 -58.5 -5t-45 -20.5t-37 -49t-23.5 -87.5l-6 -31h272l-41 -293h-272l-172 -1222h-432z" />
<glyph unicode="g" horiz-adv-x="1249" d="M-68 -68l406 56q3 -72 29 -103.5t96 -31.5q37 0 64.5 7t56.5 27.5t49.5 64.5t30.5 111l12 82q-48 -45 -122.5 -76.5t-158.5 -31.5q-169 0 -272 105t-103 311q0 96 18 186.5t58.5 176t99.5 149t148 101.5t197 38q89 0 160 -33.5t112 -97.5l27 108h381l-138 -979 q-18 -130 -60 -228t-99.5 -160t-136 -101t-162 -54.5t-185.5 -15.5q-230 0 -362 105t-146 284zM492 518q0 -61 25.5 -104t86.5 -43q51 0 86 14l51 365q-24 28 -79 28q-60 0 -100 -40.5t-55 -96t-15 -123.5z" />
<glyph unicode="h" horiz-adv-x="1198" d="M-37 0l217 1546h426l-84 -577q49 53 133 94t193 41q170 0 238 -88q50 -64 49 -179q0 -43 -7 -94l-104 -743h-432l92 664q1 12 1 23q0 71 -62 71q-36 0 -73 -17t-54 -34l-101 -707h-432z" />
<glyph unicode="i" horiz-adv-x="591" d="M-27 0l152 1081h432l-151 -1081h-433zM141 1360q0 128 74 200t201 72q103 0 157 -50.5t54 -145.5q0 -128 -73.5 -202.5t-203.5 -74.5q-100 0 -154.5 53t-54.5 148z" />
<glyph unicode="j" horiz-adv-x="585" d="M-416 -385l72 285q71 -39 160 -39q28 0 49.5 4.5t45 18t40 44t22.5 76.5l152 1077h432l-156 -1114q-31 -219 -158.5 -321.5t-328.5 -102.5q-123 0 -210 22t-120 50zM141 1360q0 128 74 200t201 72q103 0 158 -50.5t55 -145.5q0 -128 -74.5 -202.5t-204.5 -74.5 q-100 0 -154.5 53t-54.5 148z" />
<glyph unicode="k" horiz-adv-x="1222" d="M-37 0l217 1546h432l-108 -762l299 297h471l-400 -387l275 -694h-479l-158 438l-61 -47l-56 -391h-432z" />
<glyph unicode="l" horiz-adv-x="591" d="M-27 0l217 1546h433l-217 -1546h-433z" />
<glyph unicode="m" horiz-adv-x="1724" d="M-37 0l152 1081h397l-18 -129q2 0 4.5 -1t3.5 -1q125 154 309 154q49 0 93 -11.5t87 -43.5t64 -82q48 59 131.5 98t185.5 39q154 0 232 -87q59 -66 59 -182q0 -38 -6 -81l-105 -754h-432l94 655q4 23 4 40q0 26 -8 39q-14 22 -49 22q-49 0 -88 -47l-102 -709h-432l94 655 q5 30 5 50q0 19 -4 29q-8 22 -38 22q-58 0 -102 -47l-99 -709h-432z" />
<glyph unicode="n" horiz-adv-x="1198" d="M-37 0l152 1081h401l-18 -133q2 0 3.5 -1t2.5 -1q68 75 148 116.5t206 41.5q154 0 225 -90q52 -66 52 -181q0 -42 -7 -90l-104 -743h-432l92 664q3 19 3 34q0 30 -11 42q-16 18 -53 18q-35 0 -71.5 -17.5t-57.5 -38.5l-99 -702h-432z" />
<glyph unicode="o" horiz-adv-x="1222" d="M2 430q0 306 174.5 490t485.5 184q136 0 235.5 -35.5t154.5 -99t80 -140t25 -170.5q0 -145 -40.5 -268.5t-118 -216.5t-198.5 -146t-272 -53q-526 0 -526 455zM444 422q0 -160 99 -160q41 0 72.5 30t48 73t27 100.5t13.5 101t3 86.5q0 158 -97 158q-50 0 -85.5 -43.5 t-51.5 -111.5t-22.5 -125t-6.5 -109z" />
<glyph unicode="p" horiz-adv-x="1230" d="M-94 -434l213 1515h397l-14 -110l6 -4q111 137 319 137q154 0 248 -102.5t94 -317.5q0 -148 -27.5 -268t-74.5 -201.5t-112.5 -136t-139.5 -79t-158 -24.5q-90 0 -159.5 30.5t-102.5 68.5l-71 -508h-418zM442 342q9 -15 40 -27t57 -12q166 0 166 315q0 84 -24 120t-77 36 q-56 0 -106 -31z" />
<glyph unicode="q" horiz-adv-x="1236" d="M2 418q0 146 32.5 265t85.5 196t124 129t144 74t149 22q190 0 266 -133l20 110h385l-215 -1515h-411l73 520q-45 -47 -121 -79t-163 -32q-174 0 -271.5 107t-97.5 336zM467 479q0 -170 117 -170q48 0 86 17l59 419q-27 33 -82 33q-89 0 -134.5 -86t-45.5 -213z" />
<glyph unicode="r" horiz-adv-x="878" d="M-37 0l152 1081h391l-21 -176q1 0 3.5 -1t3.5 -1q54 82 144 141.5t212 59.5q17 0 63 -4l-55 -398q-30 2 -59 2q-189 0 -314 -75l-88 -629h-432z" />
<glyph unicode="s" horiz-adv-x="1056" d="M-72 272l369 93q5 -22 11.5 -38.5t22 -37t45 -32t70.5 -11.5q58 0 81.5 17.5t23.5 39.5q0 36 -71 57q-22 7 -99 23q-41 9 -68 16t-67 21t-67 29.5t-57.5 41.5t-48.5 56.5t-30 74t-12 95.5q0 98 44 174.5t119 121.5t167 68t196 23q189 0 307.5 -75.5t151.5 -223.5 l-357 -80q-32 109 -124 109q-82 0 -82 -52q0 -16 10 -27.5t34.5 -20t45.5 -13t61 -10.5q145 -25 211 -55q166 -76 166 -271q0 -102 -45 -181.5t-123 -128.5t-179.5 -74.5t-219.5 -25.5q-123 0 -217 25.5t-149 69.5t-84.5 94.5t-35.5 107.5z" />
<glyph unicode="t" horiz-adv-x="905" d="M-6 788l39 293h157l46 314l440 63l-53 -377h274l-39 -293h-274l-54 -362q-3 -21 -3 -39q0 -92 85 -92q79 0 148 37l43 -273q-54 -31 -152 -57.5t-196 -26.5q-207 0 -299 106q-70 81 -71 218q0 43 7 92l60 397h-158z" />
<glyph unicode="u" horiz-adv-x="1175" d="M6 348l103 733h432l-90 -663q-2 -16 -2.5 -24.5t1.5 -26.5t9.5 -28.5t24 -19t42.5 -8.5q48 0 95 54l98 716h432l-150 -1081h-366l4 125q-1 0 -3 1t-3 1q-56 -70 -142.5 -111t-189.5 -41q-166 -1 -243 97q-58 74 -58 194q0 38 6 82z" />
<glyph unicode="v" horiz-adv-x="1175" d="M16 1081h451l63 -684h13l239 684h461l-516 -1081h-506z" />
<glyph unicode="w" horiz-adv-x="1789" d="M16 1081h430l56 -651l8 2l229 649h410l72 -647h8l207 647h424l-467 -1081h-480l-45 573h-8l-180 -573h-514z" />
<glyph unicode="x" horiz-adv-x="1177" d="M-100 0l430 541l-291 540h440l127 -270l189 270h434l-422 -557l272 -524h-440l-123 252l-184 -252h-432z" />
<glyph unicode="y" horiz-adv-x="1165" d="M-94 -401l67 290q100 -32 158 -32q19 0 34 2t28.5 9.5t21 11t19 18.5t15 19t16.5 25t16 25l-269 1114h461l74 -661h8l240 661h452l-563 -1165q-49 -102 -95 -168t-106.5 -114.5t-136.5 -69.5t-178 -21q-65 0 -145.5 17.5t-116.5 38.5z" />
<glyph unicode="z" horiz-adv-x="970" d="M-68 0l39 274l471 514h-397l41 293h856l-41 -280l-444 -488h413l-47 -313h-891z" />
<glyph unicode="{" horiz-adv-x="751" d="M-20 494l34 231h54q64 0 91 35.5t36 101.5q12 91 16.5 206.5t13.5 170.5q11 70 39 119.5t66.5 78.5t98 45.5t119 21.5t144.5 5h125l-35 -264h-8q-51 0 -68.5 -25.5t-21.5 -109.5q-9 -256 -33 -324q-22 -60 -72.5 -100t-136.5 -72q0 -1 -1 -4t-1 -4q85 -30 120.5 -69.5 t35.5 -108.5q0 -71 -40 -203.5t-40 -195.5q0 -28 13.5 -43t48.5 -15h12l-39 -268h-199q-47 0 -90 6.5t-85.5 23.5t-73.5 43t-50 67t-18 94q1 85 40.5 230t39.5 232q0 45 -16 70t-66 25h-53z" />
<glyph unicode="|" horiz-adv-x="573" d="M-57 -293l258 1839h393l-258 -1839h-393z" />
<glyph unicode="}" horiz-adv-x="755" d="M-96 -297l35 264h8q51 0 68.5 25.5t21.5 109.5q9 256 33 324q22 60 72.5 100t136.5 72q0 1 1 4t1 4q-85 30 -120.5 69.5t-35.5 108.5q0 71 40 204t40 196q0 28 -13.5 42.5t-48.5 14.5h-12l39 268h199q60 0 112.5 -11.5t101 -36.5t76.5 -72.5t27 -112.5 q-1 -85 -40.5 -230.5t-39.5 -232.5q0 -45 16 -69.5t66 -24.5h53l-34 -232h-54q-64 0 -91 -35.5t-36 -101.5q-12 -91 -16.5 -206.5t-13.5 -170.5q-11 -70 -39 -119.5t-66.5 -78.5t-98 -45.5t-119 -21.5t-144.5 -5h-125z" />
<glyph unicode="~" horiz-adv-x="1398" d="M195 623q-9 73 0.5 135t37.5 112t83.5 78.5t132.5 28.5q75 0 275.5 -42t240.5 -42q28 0 35.5 17t7.5 59l223 -13q4 -51 3.5 -100t-15.5 -93.5t-40 -78t-69.5 -53t-103.5 -19.5q-85 0 -287 43t-234 43q-35 0 -46 -19t-1 -65z" />
<glyph unicode="&#xa1;" horiz-adv-x="661" d="M-51 -403l190 1060h377l-106 -1060h-461zM135 881q0 106 64.5 164.5t191.5 58.5q207 0 207 -160q0 -109 -65 -169t-195 -60q-101 0 -152 43t-51 123z" />
<glyph unicode="&#xa2;" horiz-adv-x="1173" d="M61 637q0 264 121 421.5t330 205.5l29 213h364l-31 -226q122 -36 189.5 -137t75.5 -242l-385 -26q0 75 -18 106t-68 31q-164 0 -164 -328q0 -75 24.5 -106t81.5 -31q59 0 91.5 36t56.5 122l342 -60q-69 -324 -402 -391l-26 -225h-367l35 248q-279 101 -279 389z" />
<glyph unicode="&#xa3;" horiz-adv-x="1280" d="M-88 0l41 309h156q61 37 98 98t37 138q0 30 -11 76h-194l41 294h106q-43 103 -43 181q0 180 149.5 296.5t420.5 116.5q250 0 377.5 -114.5t130.5 -337.5l-390 -25q-2 28 -4 46t-10 44.5t-21 41.5t-38 26.5t-60 11.5q-116 0 -116 -112q0 -68 49 -175h336l-41 -294h-258 q8 -102 -32 -174.5t-120 -137.5h84q136 0 192 38.5t78 144.5l353 -56q-26 -225 -169.5 -330.5t-422.5 -105.5h-719z" />
<glyph unicode="&#xa4;" horiz-adv-x="1167" d="M-152 188l213 181q-8 44 -8 123q0 141 78 268l-145 176l252 217l135 -166q112 53 237 53q133 0 217 -47l187 158l174 -213l-195 -166q8 -66 8 -113q0 -140 -90 -292l148 -177l-250 -217l-141 172q-106 -47 -228 -47q-118 0 -211 49q-12 -10 -200 -174zM375 524 q0 -61 29.5 -98t89.5 -37q83 0 133.5 67t50.5 160q0 61 -30.5 95t-90.5 34q-84 0 -133 -63t-49 -158z" />
<glyph unicode="&#xa5;" horiz-adv-x="1267" d="M61 1483h480l125 -541h14l240 541h452l-391 -664h145l-45 -330h-252l-67 -489h-447l70 489h-240l43 330h123z" />
<glyph unicode="&#xa6;" horiz-adv-x="573" d="M-57 -293l112 795h394l-113 -795h-393zM104 864l97 682h393l-96 -682h-394z" />
<glyph unicode="&#xa7;" horiz-adv-x="1202" d="M-45 -55l364 39q12 -144 132 -144q38 0 70 20.5t32 59.5q0 37 -22.5 65.5t-60 46t-85 36.5t-96.5 35.5t-96.5 43t-85 59t-60 85.5t-22.5 119q0 116 51.5 193.5t167.5 146.5q-32 40 -57 104.5t-25 126.5q0 222 159 346.5t416 124.5q71 0 132 -10t120.5 -37t100.5 -69 t65 -110.5t21 -156.5l-367 -39q8 75 -16 112.5t-88 37.5q-48 0 -84.5 -23t-36.5 -67q0 -34 23 -61.5t60 -46t84.5 -39t97.5 -39t97.5 -47t84.5 -62t60 -85.5t23 -116q0 -191 -219 -334q82 -99 82 -231q0 -141 -71.5 -248.5t-194 -163t-277.5 -55.5q-72 0 -132.5 9t-123 34.5 t-107.5 66.5t-76.5 111t-39.5 162zM412 557q0 -14 2 -25.5t8.5 -22t13 -17.5t21.5 -16t26.5 -14.5t36.5 -15t43 -16t54 -19t63 -22.5q43 19 43 70q0 50 -36.5 73.5t-165.5 69.5q-48 17 -75 27q-34 -24 -34 -72z" />
<glyph unicode="&#xa8;" horiz-adv-x="1024" d="M344 1376q0 105 76 171.5t194 66.5q95 0 151 -49.5t56 -132.5q0 -108 -75 -175t-191 -67q-98 0 -154.5 50t-56.5 136zM879 1376q0 105 76 171.5t194 66.5q96 0 151.5 -49t55.5 -133q0 -108 -74.5 -175t-189.5 -67q-98 0 -155.5 50t-57.5 136z" />
<glyph unicode="&#xa9;" horiz-adv-x="1705" d="M98 694q0 171 59.5 313t161.5 236t239.5 145.5t293.5 51.5q347 0 547 -193.5t200 -521.5q0 -223 -94.5 -393.5t-265 -263.5t-391.5 -93q-180 0 -324 54.5t-236.5 151.5t-141 227.5t-48.5 285.5zM326 696q0 -242 138 -378t388 -136q247 0 385.5 141t138.5 390 t-143.5 385.5t-380.5 136.5q-231 0 -378.5 -144.5t-147.5 -394.5zM498 707q0 178 97.5 287.5t274.5 109.5q127 0 220 -74t100 -209l-180 -16q-17 139 -148 139q-166 0 -166 -242q0 -49 7 -87.5t24 -74t51 -54.5t84 -19q66 0 107.5 39t52.5 102l176 -30q-8 -61 -34.5 -109.5 t-61 -78t-78.5 -49t-83.5 -27t-78.5 -7.5q-188 0 -276 108t-88 292z" />
<glyph unicode="&#xaa;" horiz-adv-x="960" d="M63 846q0 110 26.5 196t66 135.5t92 81.5t98 43t90.5 11q64 0 102.5 -19.5t73.5 -56.5l21 61h303l-78 -503q-5 -28 2 -37.5t33 -9.5q20 0 47 8l-16 -162q-26 -12 -89.5 -24.5t-107.5 -12.5q-78 0 -120 25t-62 75q-88 -96 -209 -96q-128 0 -200.5 71t-72.5 214zM416 885 q0 -99 67 -99q11 0 47 9l41 274q-16 12 -41 12q-32 0 -55.5 -19t-35.5 -49.5t-17.5 -62.5t-5.5 -65z" />
<glyph unicode="&#xab;" horiz-adv-x="1007" d="M23 522l225 314h332l-228 -304l125 -321h-327zM455 522l225 314h332l-228 -304l125 -321h-327z" />
<glyph unicode="&#xac;" horiz-adv-x="1167" d="M123 506l45 313h813l-78 -508h-289l33 195h-524z" />
<glyph unicode="&#xad;" horiz-adv-x="636" d="M-31 422l49 340h555l-49 -340h-555z" />
<glyph unicode="&#xae;" horiz-adv-x="976" d="M129 946q0 124 56 218.5t148.5 143t205.5 48.5q185 0 294 -107t109 -286q0 -180 -113 -293t-294 -113q-191 0 -298.5 109.5t-107.5 279.5zM248 950q0 -130 78.5 -205t212.5 -75q131 0 208.5 77t77.5 209q0 137 -80 213t-206 76q-125 0 -208 -80t-83 -215zM395 778v389 h156q83 0 120.5 -32t37.5 -82q0 -78 -72 -103l104 -172h-129l-82 142h-20v-142h-115zM510 997h29q55 0 55 43q0 45 -51 45h-33v-88z" />
<glyph unicode="&#xaf;" horiz-adv-x="1024" d="M489 1188l39 266h678l-39 -266h-678z" />
<glyph unicode="&#xb0;" horiz-adv-x="690" d="M156 1241q0 126 90.5 209.5t210.5 83.5q92 0 152.5 -59t60.5 -152q0 -123 -87 -207t-210 -84q-98 0 -157.5 58t-59.5 151zM326 1268q0 -32 20 -54t51 -22q35 0 66 27.5t39 64.5q6 35 -16.5 62.5t-55.5 27.5q-36 0 -70 -33t-34 -73z" />
<glyph unicode="&#xb1;" horiz-adv-x="1165" d="M76 0l45 311h239l33 197h-246l46 313h245l37 266h322l-39 -266h248l-45 -313h-248l-31 -197h252l-45 -311h-813z" />
<glyph unicode="&#xb2;" horiz-adv-x="829" d="M43 715l43 284l227 187q134 110 166.5 141.5t32.5 54.5q0 14 -8 22.5t-21 8.5q-26 0 -37.5 -20.5t-23.5 -71.5l-322 49q10 77 52 137t105 94.5t135 52t149 17.5q177 0 262.5 -68t85.5 -173q0 -99 -57.5 -172t-169.5 -144l-164 -104v-9h340l-41 -286h-754z" />
<glyph unicode="&#xb3;" horiz-adv-x="835" d="M39 983l330 57q-3 -46 17.5 -64t43.5 -18q29 0 43 16.5t14 41.5q0 23 -18 42t-47 19h-119l33 211h67q61 0 91 27.5t30 66.5q0 20 -10.5 30.5t-24.5 10.5q-48 0 -61 -75l-319 49q20 79 61 134t100 85.5t126.5 43.5t152.5 13q160 0 251 -54.5t91 -168.5q0 -70 -52 -130 t-153 -97v-6q74 -23 121 -76t47 -129q0 -148 -109.5 -230t-314.5 -82q-73 0 -134.5 13t-118.5 43t-93.5 87.5t-44.5 139.5z" />
<glyph unicode="&#xb4;" horiz-adv-x="1021" d="M635 1184l156 329h436l-316 -342z" />
<glyph unicode="&#xb5;" horiz-adv-x="1286" d="M-29 -360l205 1441h432l-96 -671q-11 -52 -2.5 -83.5t47.5 -31.5q51 0 90 22l109 764h432l-152 -1081h-342l-10 86q-96 -111 -211 -111q-25 0 -78 11l-10 -11l37 -335h-451z" />
<glyph unicode="&#xb6;" horiz-adv-x="1320" d="M121 879q0 130 34 233t93.5 172t144.5 114t182.5 65t212.5 20h512l-245 -1755h-271l213 1515h-102l-211 -1515h-270l106 761q-399 17 -399 390z" />
<glyph unicode="&#xb7;" horiz-adv-x="577" d="M53 610q0 107 61 165.5t187 58.5q94 0 142.5 -41.5t48.5 -118.5q0 -106 -61 -163.5t-185 -57.5q-193 0 -193 157z" />
<glyph unicode="&#xb8;" horiz-adv-x="1021" d="M209 -514l35 180q63 -14 110 -14q107 0 107 78q0 24 -17 37t-36 16t-54 4l72 274l174 -16l-39 -139q73 -12 117.5 -53.5t44.5 -118.5q0 -134 -95 -205.5t-245 -71.5q-96 0 -174 29z" />
<glyph unicode="&#xb9;" horiz-adv-x="768" d="M137 1239v295q88 5 193 37.5t168 77.5h282l-141 -938h-373l88 561q-33 -12 -106 -22.5t-111 -10.5z" />
<glyph unicode="&#xba;" horiz-adv-x="886" d="M61 874q0 202 130 320.5t346 118.5q356 0 356 -312q0 -192 -124 -316t-341 -124q-367 0 -367 313zM397 858q0 -53 14.5 -72.5t41.5 -19.5q32 0 54 27t31 71t12 78t3 70q0 52 -14 73t-41 21q-32 0 -54 -27t-31.5 -71t-12.5 -78.5t-3 -71.5z" />
<glyph unicode="&#xbb;" horiz-adv-x="1005" d="M-35 211l217 317l-147 308h313l160 -310l-209 -315h-334zM397 211l217 317l-147 308h313l160 -310l-209 -315h-334z" />
<glyph unicode="&#xbc;" horiz-adv-x="2304" d="M135 1100v295q89 5 193.5 37t167.5 77h282l-141 -938h-373l88 562q-33 -12 -106 -22.5t-111 -10.5zM391 -25l938 1508h391l-934 -1508h-395zM1214 164l35 246l408 530h454l-77 -510h100l-37 -266h-100l-25 -164h-362l28 164h-424zM1528 430h143l43 244z" />
<glyph unicode="&#xbd;" horiz-adv-x="2304" d="M143 1100v295q89 5 193.5 37t167.5 77h282l-141 -938h-373l88 562q-33 -12 -106 -22.5t-111 -10.5zM367 -25l938 1508h391l-934 -1508h-395zM1274 0l43 285l227 186q133 109 166 141.5t33 55.5q0 30 -29 30q-26 0 -37.5 -20.5t-23.5 -71.5l-322 49q10 77 52 137t105 94.5 t135 52t149 17.5q177 0 262.5 -68t85.5 -173q0 -99 -57.5 -171.5t-170.5 -144.5l-163 -104v-8h339l-40 -287h-754z" />
<glyph unicode="&#xbe;" horiz-adv-x="2304" d="M70 844l329 57q-3 -46 18 -64t44 -18q29 0 43 16.5t14 41.5q0 23 -18 42t-47 19h-119l33 211h67q61 0 91 27.5t30 66.5q0 20 -10.5 30.5t-24.5 10.5q-48 0 -61 -76l-320 49q20 79 61 134.5t100.5 86t127 43.5t152.5 13q160 0 251 -54.5t91 -168.5q0 -70 -52 -130.5 t-153 -97.5v-6q74 -23 121 -76t47 -129q0 -148 -109.5 -229.5t-314.5 -81.5q-73 0 -134.5 13t-118.5 43t-93.5 87.5t-44.5 139.5zM444 -25l938 1508h392l-934 -1508h-396zM1227 164l35 246l407 530h455l-78 -510h100l-37 -266h-100l-24 -164h-363l29 164h-424zM1540 430h143 l43 244z" />
<glyph unicode="&#xbf;" horiz-adv-x="1241" d="M-4 -27q0 416 485 549l19 135h434l-53 -383q-65 -5 -118 -13.5t-112 -28t-99 -47.5t-66.5 -75t-26.5 -108q0 -46 25.5 -73t74.5 -27q74 0 110 44t62 138l416 -61q-52 -231 -219.5 -345t-433.5 -114q-80 0 -151.5 13.5t-136 45t-110.5 78t-73 116t-27 156.5zM528 881 q0 106 63.5 164.5t190.5 58.5q207 0 207 -160q0 -109 -65 -169t-195 -60q-100 0 -150.5 43.5t-50.5 122.5z" />
<glyph unicode="&#xc0;" horiz-adv-x="1517" d="M-109 0l689 1483h540l326 -1483h-475l-58 287h-426l-125 -287h-471zM502 1882h438l129 -297l-299 -12zM596 623h276l-73 450h-13z" />
<glyph unicode="&#xc1;" horiz-adv-x="1517" d="M-109 0l689 1483h540l326 -1483h-475l-58 287h-426l-125 -287h-471zM596 623h276l-73 450h-13zM627 1585l215 297h434l-354 -309z" />
<glyph unicode="&#xc2;" horiz-adv-x="1517" d="M-109 0l689 1483h540l326 -1483h-475l-58 287h-426l-125 -287h-471zM446 1583l244 318h414l137 -318l-270 -8l-101 137l-153 -139zM596 623h276l-73 450h-13z" />
<glyph unicode="&#xc3;" horiz-adv-x="1517" d="M-109 0l689 1483h540l326 -1483h-475l-58 287h-426l-125 -287h-471zM479 1620q-3 142 74.5 239t202.5 97q59 0 113 -21t98.5 -42t81.5 -21q29 0 39.5 17t15.5 59l194 -13q6 -140 -56.5 -232.5t-188.5 -92.5q-51 0 -98.5 13.5t-76.5 29.5t-62 29.5t-60 13.5 q-35 0 -49.5 -18t-10.5 -66zM596 623h276l-73 450h-13z" />
<glyph unicode="&#xc4;" horiz-adv-x="1517" d="M-109 0l689 1483h540l326 -1483h-475l-58 287h-426l-125 -287h-471zM379 1763q0 106 76 173t194 67q95 0 151 -49.5t56 -134.5q0 -108 -75 -175t-191 -67q-98 0 -154.5 50t-56.5 136zM596 623h276l-73 450h-13zM913 1763q0 106 76.5 173t194.5 67q96 0 151.5 -49.5 t55.5 -134.5q0 -108 -75 -175t-190 -67q-98 0 -155.5 50t-57.5 136z" />
<glyph unicode="&#xc5;" horiz-adv-x="1517" d="M-109 0l687 1479q-17 38 -17 92q0 101 49.5 175.5t127 110t169.5 35.5q114 0 188 -63.5t74 -175.5q0 -102 -49 -176l326 -1477h-475l-58 287h-426l-125 -287h-471zM596 623h276l-73 450h-13zM752 1606q0 -47 26.5 -71t69.5 -24q59 0 94 32.5t35 98.5q0 43 -25 66t-69 23 q-58 0 -94.5 -32t-36.5 -93z" />
<glyph unicode="&#xc6;" horiz-adv-x="2052" d="M-119 0l844 1483h1348l-48 -346h-577l-35 -258h547l-49 -338h-547l-25 -193h627l-49 -348h-1071l74 537h-302l-284 -537h-453zM778 864h189l37 273h-86z" />
<glyph unicode="&#xc7;" horiz-adv-x="1464" d="M51 610q0 196 53 359t155 284t262.5 188.5t365.5 67.5q287 0 438.5 -148t138.5 -425l-407 -39q12 134 -37.5 204t-159.5 70q-168 0 -256 -137.5t-88 -415.5q0 -157 55.5 -230t173.5 -73q49 0 89 13t66.5 32.5t48.5 51t34.5 59.5t26.5 66l387 -62q-29 -128 -92 -224 t-151 -153t-186.5 -86.5t-211.5 -34.5l-19 -71q73 -12 117.5 -53.5t44.5 -118.5q0 -134 -95 -205.5t-245 -71.5q-94 0 -176 29l37 180q58 -14 110 -14q105 0 105 78q0 24 -17 37t-36 16t-54 4l52 195q-177 21 -297 106.5t-176 217t-56 304.5z" />
<glyph unicode="&#xc8;" horiz-adv-x="1220" d="M10 0l211 1483h1020l-47 -346h-576l-34 -236h544l-49 -340h-544l-31 -213h626l-49 -348h-1071zM377 1882h438l129 -297l-299 -12z" />
<glyph unicode="&#xc9;" horiz-adv-x="1220" d="M10 0l211 1483h1020l-47 -346h-576l-34 -236h544l-49 -340h-544l-31 -213h626l-49 -348h-1071zM502 1585l215 297h434l-354 -309z" />
<glyph unicode="&#xca;" horiz-adv-x="1220" d="M10 0l211 1483h1020l-47 -346h-576l-34 -236h544l-49 -340h-544l-31 -213h626l-49 -348h-1071zM322 1583l243 318h414l137 -318l-270 -8l-101 137l-153 -139z" />
<glyph unicode="&#xcb;" horiz-adv-x="1220" d="M10 0l211 1483h1020l-47 -346h-576l-34 -236h544l-49 -340h-544l-31 -213h626l-49 -348h-1071zM254 1763q0 106 76 173t194 67q95 0 151 -49.5t56 -134.5q0 -108 -75 -175t-191 -67q-98 0 -154.5 50t-56.5 136zM788 1763q0 106 76.5 173t194.5 67q96 0 151.5 -49.5 t55.5 -134.5q0 -108 -75 -175t-190 -67q-98 0 -155.5 50t-57.5 136z" />
<glyph unicode="&#xcc;" horiz-adv-x="657" d="M10 0l211 1483h445l-211 -1483h-445zM88 1882h438l129 -297l-299 -12z" />
<glyph unicode="&#xcd;" horiz-adv-x="657" d="M10 0l211 1483h445l-211 -1483h-445zM258 1585l215 297h434l-354 -309z" />
<glyph unicode="&#xce;" horiz-adv-x="657" d="M10 0l211 1483h445l-211 -1483h-445zM33 1583l243 318h414l137 -318l-270 -8l-100 137l-154 -139z" />
<glyph unicode="&#xcf;" horiz-adv-x="657" d="M-35 1763q0 106 76.5 173t194.5 67q95 0 150.5 -49.5t55.5 -134.5q0 -108 -75 -175t-191 -67q-98 0 -154.5 50t-56.5 136zM10 0l211 1483h445l-211 -1483h-445zM500 1763q0 106 76 173t194 67q96 0 151.5 -49.5t55.5 -134.5q0 -108 -74.5 -175t-189.5 -67 q-98 0 -155.5 50t-57.5 136z" />
<glyph unicode="&#xd0;" horiz-adv-x="1556" d="M18 606l43 312h138l82 565h587q331 0 490.5 -153.5t159.5 -434.5q0 -155 -34 -289t-105.5 -246t-176 -192t-252 -124t-327.5 -44h-553l86 606h-138zM565 336h82q217 0 317.5 125t100.5 405q0 156 -64.5 220.5t-214.5 64.5h-106l-33 -233h287l-43 -312h-289z" />
<glyph unicode="&#xd1;" horiz-adv-x="1538" d="M10 0l211 1483h494l307 -899h10l117 899h397l-211 -1483h-499l-291 866l-13 2l-120 -868h-402zM510 1620q-3 142 74 239t202 97q59 0 113 -21t98.5 -42t81.5 -21q29 0 40 17t16 59l194 -13q6 -140 -57 -232.5t-189 -92.5q-51 0 -98.5 13.5t-76.5 29.5t-62 29.5t-60 13.5 q-35 0 -49 -18t-10 -66z" />
<glyph unicode="&#xd2;" horiz-adv-x="1570" d="M51 600q0 145 33 278t103 248t169.5 200t240.5 134t308 49q139 0 248.5 -34t181 -92t118 -142t66 -177.5t19.5 -203.5q0 -138 -31.5 -265.5t-99.5 -241t-166 -197t-240 -132.5t-313 -49q-138 0 -246.5 31.5t-181.5 86.5t-120.5 134.5t-68 171.5t-20.5 201zM506 612 q0 -60 12 -110.5t38 -92.5t72 -66t109 -24q62 0 113.5 21t86.5 55.5t61.5 83t42 97.5t25 106t12.5 102t3 90q0 57 -10.5 105.5t-34.5 91t-68 66.5t-104 24q-64 0 -117.5 -19.5t-90 -51.5t-64 -78t-43.5 -93.5t-26 -104t-13.5 -104t-3.5 -98.5zM555 1882h438l129 -297 l-299 -12z" />
<glyph unicode="&#xd3;" horiz-adv-x="1570" d="M51 600q0 145 33 278t103 248t169.5 200t240.5 134t308 49q139 0 248.5 -34t181 -92t118 -142t66 -177.5t19.5 -203.5q0 -138 -31.5 -265.5t-99.5 -241t-166 -197t-240 -132.5t-313 -49q-138 0 -246.5 31.5t-181.5 86.5t-120.5 134.5t-68 171.5t-20.5 201zM506 612 q0 -60 12 -110.5t38 -92.5t72 -66t109 -24q62 0 113.5 21t86.5 55.5t61.5 83t42 97.5t25 106t12.5 102t3 90q0 57 -10.5 105.5t-34.5 91t-68 66.5t-104 24q-64 0 -117.5 -19.5t-90 -51.5t-64 -78t-43.5 -93.5t-26 -104t-13.5 -104t-3.5 -98.5zM731 1585l215 297h434 l-354 -309z" />
<glyph unicode="&#xd4;" horiz-adv-x="1570" d="M51 600q0 145 33 278t103 248t169.5 200t240.5 134t308 49q139 0 248.5 -34t181 -92t118 -142t66 -177.5t19.5 -203.5q0 -138 -31.5 -265.5t-99.5 -241t-166 -197t-240 -132.5t-313 -49q-138 0 -246.5 31.5t-181.5 86.5t-120.5 134.5t-68 171.5t-20.5 201zM500 1583 l243 318h414l137 -318l-270 -8l-100 137l-154 -139zM506 612q0 -60 12 -110.5t38 -92.5t72 -66t109 -24q62 0 113.5 21t86.5 55.5t61.5 83t42 97.5t25 106t12.5 102t3 90q0 57 -10.5 105.5t-34.5 91t-68 66.5t-104 24q-64 0 -117.5 -19.5t-90 -51.5t-64 -78t-43.5 -93.5 t-26 -104t-13.5 -104t-3.5 -98.5z" />
<glyph unicode="&#xd5;" horiz-adv-x="1570" d="M51 600q0 145 33 278t103 248t169.5 200t240.5 134t308 49q139 0 248.5 -34t181 -92t118 -142t66 -177.5t19.5 -203.5q0 -138 -31.5 -265.5t-99.5 -241t-166 -197t-240 -132.5t-313 -49q-138 0 -246.5 31.5t-181.5 86.5t-120.5 134.5t-68 171.5t-20.5 201zM506 612 q0 -60 12 -110.5t38 -92.5t72 -66t109 -24q62 0 113.5 21t86.5 55.5t61.5 83t42 97.5t25 106t12.5 102t3 90q0 57 -10.5 105.5t-34.5 91t-68 66.5t-104 24q-64 0 -117.5 -19.5t-90 -51.5t-64 -78t-43.5 -93.5t-26 -104t-13.5 -104t-3.5 -98.5zM532 1620q-3 142 74.5 239 t202.5 97q59 0 113 -21t98.5 -42t81.5 -21q29 0 39.5 17t15.5 59l195 -13q6 -140 -57 -232.5t-189 -92.5q-51 0 -98.5 13.5t-76.5 29.5t-62 29.5t-60 13.5q-35 0 -49 -18t-10 -66z" />
<glyph unicode="&#xd6;" horiz-adv-x="1570" d="M51 600q0 145 33 278t103 248t169.5 200t240.5 134t308 49q139 0 248.5 -34t181 -92t118 -142t66 -177.5t19.5 -203.5q0 -138 -31.5 -265.5t-99.5 -241t-166 -197t-240 -132.5t-313 -49q-138 0 -246.5 31.5t-181.5 86.5t-120.5 134.5t-68 171.5t-20.5 201zM432 1763 q0 106 76 173t194 67q95 0 151 -49.5t56 -134.5q0 -108 -75 -175t-191 -67q-98 0 -154.5 50t-56.5 136zM506 612q0 -60 12 -110.5t38 -92.5t72 -66t109 -24q62 0 113.5 21t86.5 55.5t61.5 83t42 97.5t25 106t12.5 102t3 90q0 57 -10.5 105.5t-34.5 91t-68 66.5t-104 24 q-64 0 -117.5 -19.5t-90 -51.5t-64 -78t-43.5 -93.5t-26 -104t-13.5 -104t-3.5 -98.5zM967 1763q0 106 76 173t194 67q96 0 151.5 -49.5t55.5 -134.5q0 -108 -74.5 -175t-189.5 -67q-98 0 -155.5 50t-57.5 136z" />
<glyph unicode="&#xd7;" horiz-adv-x="1165" d="M137 471l215 188l-162 189l259 227l161 -188l217 188l195 -227l-217 -189l164 -188l-258 -225l-164 188l-215 -188z" />
<glyph unicode="&#xd8;" horiz-adv-x="1570" d="M51 600q0 145 33 278t103 248t169.5 200t240.5 134t308 49h2l49 119h416l-86 -213q252 -157 252 -555q0 -138 -31.5 -265.5t-99.5 -241t-166 -197t-240 -132.5t-313 -49h-24l-56 -137h-415l94 236q-236 156 -236 526zM506 612q0 -60 12 -110.5t38 -92.5t72 -66t109 -24 q62 0 113.5 21t86.5 55.5t61.5 83t42 97.5t25 106t12.5 102t3 90q0 57 -10.5 105.5t-34.5 91t-68 66.5t-104 24q-64 0 -117.5 -19.5t-90 -51.5t-64 -78t-43.5 -93.5t-26 -104t-13.5 -104t-3.5 -98.5z" />
<glyph unicode="&#xd9;" horiz-adv-x="1447" d="M72 604l125 879h446l-121 -852q-10 -69 -13 -102.5t0 -83t20 -72t54 -40.5t95 -18q34 0 61 4t48 15.5t36 22.5t27 34.5t20 41.5t15.5 54t12 62t11.5 74l125 860h443l-129 -942q-22 -161 -81 -273.5t-153.5 -175.5t-209 -90t-265.5 -27q-344 0 -478 153.5t-89 475.5z M477 1882h438l129 -297l-299 -12z" />
<glyph unicode="&#xda;" horiz-adv-x="1447" d="M72 604l125 879h446l-121 -852q-10 -69 -13 -102.5t0 -83t20 -72t54 -40.5t95 -18q34 0 61 4t48 15.5t36 22.5t27 34.5t20 41.5t15.5 54t12 62t11.5 74l125 860h443l-129 -942q-22 -161 -81 -273.5t-153.5 -175.5t-209 -90t-265.5 -27q-344 0 -478 153.5t-89 475.5z M649 1585l215 297h434l-354 -309z" />
<glyph unicode="&#xdb;" horiz-adv-x="1447" d="M72 604l125 879h446l-121 -852q-10 -69 -13 -102.5t0 -83t20 -72t54 -40.5t95 -18q34 0 61 4t48 15.5t36 22.5t27 34.5t20 41.5t15.5 54t12 62t11.5 74l125 860h443l-129 -942q-22 -161 -81 -273.5t-153.5 -175.5t-209 -90t-265.5 -27q-344 0 -478 153.5t-89 475.5z M422 1583l244 318h413l138 -318l-271 -8l-100 137l-154 -139z" />
<glyph unicode="&#xdc;" horiz-adv-x="1447" d="M72 604l125 879h446l-121 -852q-10 -69 -13 -102.5t0 -83t20 -72t54 -40.5t95 -18q34 0 61 4t48 15.5t36 22.5t27 34.5t20 41.5t15.5 54t12 62t11.5 74l125 860h443l-129 -942q-22 -161 -81 -273.5t-153.5 -175.5t-209 -90t-265.5 -27q-344 0 -478 153.5t-89 475.5z M369 1763q0 106 76 173t194 67q95 0 151 -49.5t56 -134.5q0 -108 -75 -175t-191 -67q-98 0 -154.5 50t-56.5 136zM903 1763q0 106 76.5 173t194.5 67q96 0 151 -49.5t55 -134.5q0 -108 -74.5 -175t-189.5 -67q-98 0 -155.5 50t-57.5 136z" />
<glyph unicode="&#xdd;" horiz-adv-x="1335" d="M55 1483h463l189 -553h14l319 553h469l-620 -942q-15 -118 -74 -541h-448l79 547zM596 1585l215 297h434l-354 -309z" />
<glyph unicode="&#xde;" horiz-adv-x="1269" d="M-37 0l205 1483h436l-26 -234h145q494 0 494 -456q0 -126 -39 -228.5t-117 -179t-202.5 -118.5t-287.5 -42h-131l-34 -225h-443zM487 553h43q105 0 163.5 49.5t58.5 171.5q0 144 -148 144h-67z" />
<glyph unicode="&#xdf;" horiz-adv-x="1331" d="M-86 -434l195 1431q22 162 76.5 275t141.5 177.5t195 93t250 28.5q232 0 370 -103.5t138 -285.5q0 -83 -30 -152.5t-75.5 -112t-87 -67t-75.5 -33.5l-2 -8q36 -13 62.5 -25t65 -40.5t63 -62.5t43 -91.5t18.5 -128.5q0 -68 -16 -134t-54.5 -130.5t-95.5 -113t-145 -78.5 t-197 -30q-75 0 -156 16t-109 29l43 297q95 -22 127 -22q164 0 164 178q0 82 -42.5 120t-112.5 38h-64l41 282h37q75 0 117.5 60.5t42.5 171.5q0 56 -32.5 89.5t-84.5 33.5q-34 0 -58.5 -7.5t-49 -29t-41.5 -66.5t-27 -114l-205 -1485h-430z" />
<glyph unicode="&#xe0;" d="M4 401q0 158 35.5 284t90 202.5t126.5 127t139 70t133 19.5q92 0 150.5 -26t105.5 -77l17 80h407l-110 -770q-6 -42 5 -58.5t48 -16.5q19 0 63 12l-20 -223q-37 -18 -120 -35t-142 -17q-107 0 -165 33t-83 105q-116 -136 -301 -136q-177 0 -278 105.5t-101 320.5z M391 1513h440l60 -329l-281 -13zM469 455q0 -69 27.5 -111.5t87.5 -42.5q44 0 84 21l61 428q-30 28 -80 28q-51 0 -88 -31t-56 -82t-27.5 -103t-8.5 -107z" />
<glyph unicode="&#xe1;" d="M4 401q0 158 35.5 284t90 202.5t126.5 127t139 70t133 19.5q92 0 150.5 -26t105.5 -77l17 80h407l-110 -770q-6 -42 5 -58.5t48 -16.5q19 0 63 12l-20 -223q-37 -18 -120 -35t-142 -17q-107 0 -165 33t-83 105q-116 -136 -301 -136q-177 0 -278 105.5t-101 320.5z M469 455q0 -69 27.5 -111.5t87.5 -42.5q44 0 84 21l61 428q-30 28 -80 28q-51 0 -88 -31t-56 -82t-27.5 -103t-8.5 -107zM518 1184l156 329h436l-315 -342z" />
<glyph unicode="&#xe2;" d="M4 401q0 158 35.5 284t90 202.5t126.5 127t139 70t133 19.5q92 0 150.5 -26t105.5 -77l17 80h407l-110 -770q-6 -42 5 -58.5t48 -16.5q19 0 63 12l-20 -223q-37 -18 -120 -35t-142 -17q-107 0 -165 33t-83 105q-116 -136 -301 -136q-177 0 -278 105.5t-101 320.5z M283 1186l262 336h407l135 -336l-270 -10l-94 157l-141 -157zM469 455q0 -69 27.5 -111.5t87.5 -42.5q44 0 84 21l61 428q-30 28 -80 28q-51 0 -88 -31t-56 -82t-27.5 -103t-8.5 -107z" />
<glyph unicode="&#xe3;" d="M4 401q0 158 35.5 284t90 202.5t126.5 127t139 70t133 19.5q92 0 150.5 -26t105.5 -77l17 80h407l-110 -770q-6 -42 5 -58.5t48 -16.5q19 0 63 12l-20 -223q-37 -18 -120 -35t-142 -17q-107 0 -165 33t-83 105q-116 -136 -301 -136q-177 0 -278 105.5t-101 320.5z M311 1194q2 144 77 239t202 95q59 0 112.5 -21t97.5 -42t81 -21q29 0 39.5 17t15.5 59l194 -11q0 -66 -13 -122t-40 -103t-75.5 -73.5t-114.5 -26.5t-123 21.5t-100 43t-74 21.5q-35 0 -50 -18.5t-12 -67.5zM469 455q0 -69 27.5 -111.5t87.5 -42.5q44 0 84 21l61 428 q-30 28 -80 28q-51 0 -88 -31t-56 -82t-27.5 -103t-8.5 -107z" />
<glyph unicode="&#xe4;" d="M4 401q0 158 35.5 284t90 202.5t126.5 127t139 70t133 19.5q92 0 150.5 -26t105.5 -77l17 80h407l-110 -770q-6 -42 5 -58.5t48 -16.5q19 0 63 12l-20 -223q-37 -18 -120 -35t-142 -17q-107 0 -165 33t-83 105q-116 -136 -301 -136q-177 0 -278 105.5t-101 320.5z M227 1376q0 105 76.5 171.5t194.5 66.5q95 0 151 -49.5t56 -132.5q0 -108 -75 -175t-192 -67q-98 0 -154.5 50t-56.5 136zM469 455q0 -69 27.5 -111.5t87.5 -42.5q44 0 84 21l61 428q-30 28 -80 28q-51 0 -88 -31t-56 -82t-27.5 -103t-8.5 -107zM762 1376q0 105 76 171.5 t194 66.5q96 0 151.5 -49t55.5 -133q0 -108 -74.5 -175t-189.5 -67q-98 0 -155.5 50t-57.5 136z" />
<glyph unicode="&#xe5;" d="M4 401q0 158 35.5 284t90 202.5t126.5 127t139 70t133 19.5q92 0 150.5 -26t105.5 -77l17 80h407l-110 -770q-6 -42 5 -58.5t48 -16.5q19 0 63 12l-20 -223q-37 -18 -120 -35t-142 -17q-107 0 -165 33t-83 105q-116 -136 -301 -136q-177 0 -278 105.5t-101 320.5z M469 455q0 -69 27.5 -111.5t87.5 -42.5q44 0 84 21l61 428q-30 28 -80 28q-51 0 -88 -31t-56 -82t-27.5 -103t-8.5 -107zM483 1348q0 122 82.5 192t198.5 70q93 0 153 -53t60 -144q0 -120 -78 -186t-199 -66q-99 0 -158 49t-59 138zM647 1370q0 -65 72 -65q39 0 64.5 21.5 t25.5 68.5q0 31 -19 48t-49 17q-39 0 -66.5 -24t-27.5 -66z" />
<glyph unicode="&#xe6;" horiz-adv-x="1773" d="M4 401q0 158 35.5 284t90 202.5t126.5 127t139 70t133 19.5q92 0 150.5 -26t105.5 -77l17 80h307q101 23 211 23q202 0 298.5 -86.5t96.5 -226.5q0 -53 -15 -99t-39 -80t-61.5 -63t-74.5 -48t-85 -35t-87 -25t-88 -16t-79 -10.5t-68 -6.5h-1q3 -62 25 -93.5t78 -31.5 q50 0 80.5 29t50.5 87l338 -86q-53 -152 -188.5 -245t-350.5 -93q-245 0 -373 125q-164 -125 -383 -125q-179 0 -284 106t-105 320zM469 455q0 -69 27.5 -111.5t87.5 -42.5q46 0 84 23q-9 52 -9 114q0 183 60 318q-24 22 -70 22q-51 0 -88 -31t-56 -82t-27.5 -103t-8.5 -107 zM1135 662q172 11 172 110q0 51 -52 51q-17 0 -32.5 -5.5t-34.5 -21t-33 -50t-20 -84.5z" />
<glyph unicode="&#xe7;" horiz-adv-x="1136" d="M2 446q0 305 166 481.5t463 176.5q230 0 348.5 -122.5t110.5 -336.5l-369 -24q4 32 1 64.5t-10.5 58.5t-29 42.5t-55.5 16.5q-51 0 -87 -38.5t-52 -100.5t-22.5 -116.5t-6.5 -109.5q0 -149 106 -149q61 0 98 49t50 115l350 -54q-87 -389 -481 -422l-21 -71 q73 -12 117.5 -53.5t44.5 -118.5q0 -134 -95 -205.5t-245 -71.5q-96 0 -174 29l35 180q63 -14 110 -14q107 0 107 78q0 24 -17 37t-36 16t-54 4l52 197q-195 29 -299.5 153.5t-104.5 308.5z" />
<glyph unicode="&#xe8;" horiz-adv-x="1114" d="M2 438q0 138 35.5 250.5t96 188.5t143 128t174.5 75.5t192 23.5q113 0 195.5 -24t129 -68.5t68 -99t21.5 -121.5q0 -196 -180 -287q-141 -73 -418 -96q2 -27 5.5 -44.5t13 -38.5t30 -31.5t51.5 -10.5q53 0 83 29t50 87l338 -86q-53 -152 -189 -245t-349 -93 q-132 0 -229.5 37.5t-153 103.5t-81.5 146t-26 176zM330 1513h440l59 -329l-280 -13zM477 662q22 1 36 3t19 3.5t7 1.5q108 23 108 94q0 25 -14.5 42t-38.5 17q-97 0 -117 -161z" />
<glyph unicode="&#xe9;" horiz-adv-x="1114" d="M2 438q0 138 35.5 250.5t96 188.5t143 128t174.5 75.5t192 23.5q113 0 195.5 -24t129 -68.5t68 -99t21.5 -121.5q0 -196 -180 -287q-141 -73 -418 -96q2 -27 5.5 -44.5t13 -38.5t30 -31.5t51.5 -10.5q53 0 83 29t50 87l338 -86q-53 -152 -189 -245t-349 -93 q-132 0 -229.5 37.5t-153 103.5t-81.5 146t-26 176zM457 1184l155 329h437l-316 -342zM477 662q22 1 36 3t19 3.5t7 1.5q108 23 108 94q0 25 -14.5 42t-38.5 17q-97 0 -117 -161z" />
<glyph unicode="&#xea;" horiz-adv-x="1114" d="M2 438q0 138 35.5 250.5t96 188.5t143 128t174.5 75.5t192 23.5q113 0 195.5 -24t129 -68.5t68 -99t21.5 -121.5q0 -196 -180 -287q-141 -73 -418 -96q2 -27 5.5 -44.5t13 -38.5t30 -31.5t51.5 -10.5q53 0 83 29t50 87l338 -86q-53 -152 -189 -245t-349 -93 q-132 0 -229.5 37.5t-153 103.5t-81.5 146t-26 176zM221 1186l262 336h408l135 -336l-270 -10l-94 157l-142 -157zM477 662q22 1 36 3t19 3.5t7 1.5q108 23 108 94q0 25 -14.5 42t-38.5 17q-97 0 -117 -161z" />
<glyph unicode="&#xeb;" horiz-adv-x="1114" d="M2 438q0 138 35.5 250.5t96 188.5t143 128t174.5 75.5t192 23.5q113 0 195.5 -24t129 -68.5t68 -99t21.5 -121.5q0 -196 -180 -287q-141 -73 -418 -96q2 -27 5.5 -44.5t13 -38.5t30 -31.5t51.5 -10.5q53 0 83 29t50 87l338 -86q-53 -152 -189 -245t-349 -93 q-132 0 -229.5 37.5t-153 103.5t-81.5 146t-26 176zM166 1376q0 105 76 171.5t194 66.5q95 0 151 -49.5t56 -132.5q0 -108 -75 -175t-191 -67q-98 0 -154.5 50t-56.5 136zM477 662q22 1 36 3t19 3.5t7 1.5q108 23 108 94q0 25 -14.5 42t-38.5 17q-97 0 -117 -161zM700 1376 q0 105 76.5 171.5t194.5 66.5q96 0 151.5 -49t55.5 -133q0 -108 -75 -175t-190 -67q-98 0 -155.5 50t-57.5 136z" />
<glyph unicode="&#xec;" horiz-adv-x="591" d="M-27 0l152 1081h432l-151 -1081h-433zM39 1513h440l60 -329l-281 -13z" />
<glyph unicode="&#xed;" horiz-adv-x="591" d="M-27 0l152 1081h432l-151 -1081h-433zM166 1184l156 329h436l-316 -342z" />
<glyph unicode="&#xee;" horiz-adv-x="591" d="M-70 1186l263 336h407l135 -336l-270 -10l-94 157l-142 -157zM-27 0l152 1081h432l-151 -1081h-433z" />
<glyph unicode="&#xef;" horiz-adv-x="591" d="M-125 1376q0 105 76 171.5t194 66.5q95 0 151 -49.5t56 -132.5q0 -108 -75 -175t-191 -67q-98 0 -154.5 50t-56.5 136zM-27 0l152 1081h432l-151 -1081h-433zM410 1376q0 105 76 171.5t194 66.5q96 0 151.5 -49t55.5 -133q0 -108 -74.5 -175t-189.5 -67q-98 0 -155.5 50 t-57.5 136z" />
<glyph unicode="&#xf0;" horiz-adv-x="1230" d="M-2 455q0 91 20.5 176t63.5 160t105 130.5t150 88t193 32.5q127 0 228 -69q2 -2 4.5 0.5t5.5 7.5t4 6q-128 217 -526 361l272 276q131 -51 240 -121l174 139l213 -247l-144 -115q164 -219 164 -469q0 -152 -20 -274.5t-68 -229.5t-123.5 -178.5t-190.5 -112.5t-265 -41 q-500 0 -500 480zM438 426q0 -164 113 -164q52 0 88.5 37.5t54 102t24.5 128t7 136.5q0 13 -1 35.5t-1 31.5q-63 27 -123 27q-162 0 -162 -334z" />
<glyph unicode="&#xf1;" horiz-adv-x="1198" d="M-37 0l152 1081h401l-18 -133q2 0 3.5 -1t2.5 -1q68 75 148 116.5t206 41.5q154 0 225 -90t45 -271l-104 -743h-432l92 664q8 57 -8 75.5t-53 18.5q-35 0 -71.5 -17.5t-57.5 -38.5l-99 -702h-432zM260 1194q2 144 77 239t202 95q59 0 112 -21t97 -42t81 -21q29 0 40 17 t16 59l194 -11q0 -66 -13 -122t-40 -103t-75.5 -73.5t-114.5 -26.5t-123 21.5t-100 43t-74 21.5q-35 0 -50 -18.5t-12 -67.5z" />
<glyph unicode="&#xf2;" horiz-adv-x="1222" d="M2 430q0 306 174.5 490t485.5 184q136 0 235.5 -35.5t154.5 -99t80 -140t25 -170.5q0 -145 -40.5 -268.5t-118 -216.5t-198.5 -146t-272 -53q-526 0 -526 455zM350 1513h441l59 -329l-281 -13zM444 422q0 -160 99 -160q41 0 72.5 30t48 73t27 100.5t13.5 101t3 86.5 q0 158 -97 158q-50 0 -85.5 -43.5t-51.5 -111.5t-22.5 -125t-6.5 -109z" />
<glyph unicode="&#xf3;" horiz-adv-x="1222" d="M2 430q0 306 174.5 490t485.5 184q136 0 235.5 -35.5t154.5 -99t80 -140t25 -170.5q0 -145 -40.5 -268.5t-118 -216.5t-198.5 -146t-272 -53q-526 0 -526 455zM444 422q0 -160 99 -160q41 0 72.5 30t48 73t27 100.5t13.5 101t3 86.5q0 158 -97 158q-50 0 -85.5 -43.5 t-51.5 -111.5t-22.5 -125t-6.5 -109zM477 1184l156 329h436l-315 -342z" />
<glyph unicode="&#xf4;" horiz-adv-x="1222" d="M2 430q0 306 174.5 490t485.5 184q136 0 235.5 -35.5t154.5 -99t80 -140t25 -170.5q0 -145 -40.5 -268.5t-118 -216.5t-198.5 -146t-272 -53q-526 0 -526 455zM262 1186l262 336h408l135 -336l-270 -10l-95 157l-141 -157zM444 422q0 -160 99 -160q41 0 72.5 30t48 73 t27 100.5t13.5 101t3 86.5q0 158 -97 158q-50 0 -85.5 -43.5t-51.5 -111.5t-22.5 -125t-6.5 -109z" />
<glyph unicode="&#xf5;" horiz-adv-x="1222" d="M2 430q0 306 174.5 490t485.5 184q136 0 235.5 -35.5t154.5 -99t80 -140t25 -170.5q0 -145 -40.5 -268.5t-118 -216.5t-198.5 -146t-272 -53q-526 0 -526 455zM270 1194q2 144 77 239t202 95q59 0 112.5 -21t97.5 -42t81 -21q29 0 39.5 17t15.5 59l195 -11 q0 -90 -22 -160t-78.5 -117.5t-143.5 -47.5q-66 0 -123 21.5t-100 43t-74 21.5q-35 0 -50 -18.5t-12 -67.5zM444 422q0 -160 99 -160q41 0 72.5 30t48 73t27 100.5t13.5 101t3 86.5q0 158 -97 158q-50 0 -85.5 -43.5t-51.5 -111.5t-22.5 -125t-6.5 -109z" />
<glyph unicode="&#xf6;" horiz-adv-x="1222" d="M2 430q0 306 174.5 490t485.5 184q136 0 235.5 -35.5t154.5 -99t80 -140t25 -170.5q0 -145 -40.5 -268.5t-118 -216.5t-198.5 -146t-272 -53q-526 0 -526 455zM186 1376q0 105 76.5 171.5t194.5 66.5q95 0 151 -49.5t56 -132.5q0 -108 -75 -175t-192 -67q-98 0 -154.5 50 t-56.5 136zM444 422q0 -160 99 -160q41 0 72.5 30t48 73t27 100.5t13.5 101t3 86.5q0 158 -97 158q-50 0 -85.5 -43.5t-51.5 -111.5t-22.5 -125t-6.5 -109zM721 1376q0 105 76 171.5t194 66.5q96 0 151.5 -49t55.5 -133q0 -108 -74.5 -175t-189.5 -67q-98 0 -155.5 50 t-57.5 136z" />
<glyph unicode="&#xf7;" horiz-adv-x="1165" d="M141 502l43 311h813l-43 -311h-813zM326 268q0 85 57.5 143t161.5 58q82 0 126 -42.5t44 -107.5q0 -88 -56 -141t-163 -53q-170 0 -170 143zM428 987q0 87 57 144t162 57q84 0 126 -41.5t42 -108.5q0 -88 -55 -141t-162 -53q-170 0 -170 143z" />
<glyph unicode="&#xf8;" horiz-adv-x="1222" d="M2 430q0 306 174.5 490t485.5 184h4l47 115h395l-88 -220q137 -117 137 -340q0 -139 -37.5 -259t-108.5 -211.5t-182 -147.5t-251 -64l-56 -139h-395l80 201q-205 108 -205 391zM444 422q0 -160 99 -160q41 0 72.5 30t48 73t27 100.5t13.5 101t3 86.5q0 158 -97 158 q-50 0 -85.5 -43.5t-51.5 -111.5t-22.5 -125t-6.5 -109z" />
<glyph unicode="&#xf9;" horiz-adv-x="1175" d="M6 348l103 733h432l-90 -663q-2 -16 -2.5 -24.5t1.5 -26.5t9.5 -28.5t24 -19t42.5 -8.5q48 0 95 54l98 716h432l-150 -1081h-366l4 125q-1 0 -3 1t-3 1q-56 -70 -142.5 -111t-189.5 -41q-166 0 -243 97.5t-52 275.5zM326 1513h440l59 -329l-280 -13z" />
<glyph unicode="&#xfa;" horiz-adv-x="1175" d="M6 348l103 733h432l-90 -663q-2 -16 -2.5 -24.5t1.5 -26.5t9.5 -28.5t24 -19t42.5 -8.5q48 0 95 54l98 716h432l-150 -1081h-366l4 125q-1 0 -3 1t-3 1q-56 -70 -142.5 -111t-189.5 -41q-166 0 -243 97.5t-52 275.5zM453 1184l155 329h436l-315 -342z" />
<glyph unicode="&#xfb;" horiz-adv-x="1175" d="M6 348l103 733h432l-90 -663q-2 -16 -2.5 -24.5t1.5 -26.5t9.5 -28.5t24 -19t42.5 -8.5q48 0 95 54l98 716h432l-150 -1081h-366l4 125q-1 0 -3 1t-3 1q-56 -70 -142.5 -111t-189.5 -41q-166 0 -243 97.5t-52 275.5zM217 1186l262 336h408l135 -336l-270 -10l-95 157 l-141 -157z" />
<glyph unicode="&#xfc;" horiz-adv-x="1175" d="M6 348l103 733h432l-90 -663q-2 -16 -2.5 -24.5t1.5 -26.5t9.5 -28.5t24 -19t42.5 -8.5q48 0 95 54l98 716h432l-150 -1081h-366l4 125q-1 0 -3 1t-3 1q-56 -70 -142.5 -111t-189.5 -41q-166 0 -243 97.5t-52 275.5zM162 1376q0 105 76 171.5t194 66.5q95 0 151 -49.5 t56 -132.5q0 -108 -75 -175t-191 -67q-98 0 -154.5 50t-56.5 136zM696 1376q0 105 76.5 171.5t194.5 66.5q96 0 151.5 -49t55.5 -133q0 -108 -75 -175t-190 -67q-98 0 -155.5 50t-57.5 136z" />
<glyph unicode="&#xfd;" horiz-adv-x="1165" d="M-94 -401l67 290q100 -32 158 -32q19 0 34 2t28.5 9.5t21 11t19 18.5t15 19t16.5 25t16 25l-269 1114h461l74 -661h8l240 661h452l-563 -1165q-49 -102 -95 -168t-106.5 -114.5t-136.5 -69.5t-178 -21q-65 0 -145.5 17.5t-116.5 38.5zM459 1184l155 329h437l-316 -342z " />
<glyph unicode="&#xfe;" horiz-adv-x="1230" d="M-94 -434l274 1980h424l-78 -557q118 115 301 115q154 0 248 -102t94 -318q0 -148 -28 -267.5t-76 -201t-115.5 -136.5t-144 -79.5t-162.5 -24.5q-97 0 -151 24t-97 75l-71 -508h-418zM442 340q40 -37 105 -37q75 0 116.5 79t41.5 234q0 79 -23 118.5t-88 39.5 q-52 0 -96 -33z" />
<glyph unicode="&#xff;" horiz-adv-x="1165" d="M-94 -401l67 290q100 -32 158 -32q19 0 34 2t28.5 9.5t21 11t19 18.5t15 19t16.5 25t16 25l-269 1114h461l74 -661h8l240 661h452l-563 -1165q-49 -102 -95 -168t-106.5 -114.5t-136.5 -69.5t-178 -21q-65 0 -145.5 17.5t-116.5 38.5zM168 1376q0 105 76 171.5t194 66.5 q95 0 151 -49.5t56 -132.5q0 -108 -75 -175t-191 -67q-98 0 -154.5 50t-56.5 136zM702 1376q0 105 76.5 171.5t194.5 66.5q96 0 151.5 -49t55.5 -133q0 -108 -75 -175t-190 -67q-98 0 -155.5 50t-57.5 136z" />
<glyph unicode="&#x152;" horiz-adv-x="2162" d="M51 588q0 200 53 368.5t152 291.5t250.5 192t339.5 69q234 0 364 -133l17 107h956l-47 -346h-575l-33 -236h545l-48 -340h-542l-31 -213h625l-49 -348h-1008l16 125q-77 -77 -182 -113.5t-211 -36.5q-151 0 -265.5 45t-185.5 127.5t-106 193t-35 247.5zM506 588 q0 -266 227 -266q51 0 96 14t90.5 53t77.5 100.5t52 164.5t20 237q0 130 -55 198t-162 68q-79 0 -140 -29t-108.5 -93.5t-72.5 -177t-25 -269.5z" />
<glyph unicode="&#x153;" horiz-adv-x="1781" d="M2 451q0 190 74.5 337t219 231.5t339.5 84.5q236 0 358 -115q58 50 148 82.5t194 32.5q201 0 294 -86t93 -227q0 -191 -178 -287q-144 -73 -418 -96q1 -26 4.5 -44.5t13 -39t30.5 -31t53 -10.5q51 0 81 29t52 87l338 -86q-54 -151 -186 -244.5t-326 -93.5 q-107 0 -196 33.5t-138 87.5q-75 -59 -162 -90t-211 -31q-237 0 -357 122.5t-120 353.5zM444 420q0 -158 99 -158q42 0 73.5 30t48 72t27 100t13 102t2.5 89q0 156 -97 156q-43 0 -75.5 -30.5t-49 -72.5t-26.5 -100.5t-12.5 -101t-2.5 -86.5zM1145 662q22 1 35.5 3t18.5 3.5 t7 1.5q109 23 109 94q0 59 -47 59q-105 0 -123 -161z" />
<glyph unicode="&#x178;" horiz-adv-x="1335" d="M55 1483h463l189 -553h14l319 553h469l-620 -942q-15 -118 -74 -541h-448l79 547zM305 1763q0 106 76 173t194 67q95 0 151 -49.5t56 -134.5q0 -108 -75 -175t-191 -67q-98 0 -154.5 50t-56.5 136zM840 1763q0 106 76 173t194 67q96 0 151.5 -49.5t55.5 -134.5 q0 -108 -74.5 -175t-189.5 -67q-98 0 -155.5 50t-57.5 136z" />
<glyph unicode="&#x2c6;" horiz-adv-x="1024" d="M399 1186l263 336h407l135 -336l-270 -10l-94 157l-142 -157z" />
<glyph unicode="&#x2dc;" horiz-adv-x="1021" d="M428 1194q2 144 77 239t202 95q59 0 112 -21t97 -42t81 -21q29 0 40 17t16 59l194 -11q0 -66 -13 -122t-40 -103t-75.5 -73.5t-114.5 -26.5t-123 21.5t-100 43t-74 21.5q-35 0 -50 -18.5t-12 -67.5z" />
<glyph unicode="&#x2000;" horiz-adv-x="1001" />
<glyph unicode="&#x2001;" horiz-adv-x="2003" />
<glyph unicode="&#x2002;" horiz-adv-x="1001" />
<glyph unicode="&#x2003;" horiz-adv-x="2003" />
<glyph unicode="&#x2004;" horiz-adv-x="667" />
<glyph unicode="&#x2005;" horiz-adv-x="500" />
<glyph unicode="&#x2006;" horiz-adv-x="333" />
<glyph unicode="&#x2007;" horiz-adv-x="333" />
<glyph unicode="&#x2008;" horiz-adv-x="250" />
<glyph unicode="&#x2009;" horiz-adv-x="400" />
<glyph unicode="&#x200a;" horiz-adv-x="111" />
<glyph unicode="&#x2010;" horiz-adv-x="632" d="M6 422l49 340h555l-49 -340h-555z" />
<glyph unicode="&#x2011;" horiz-adv-x="632" d="M6 422l49 340h555l-49 -340h-555z" />
<glyph unicode="&#x2012;" horiz-adv-x="632" d="M6 422l49 340h555l-49 -340h-555z" />
<glyph unicode="&#x2013;" horiz-adv-x="1021" d="M-47 424l41 297h1024l-41 -297h-1024z" />
<glyph unicode="&#x2014;" horiz-adv-x="2045" d="M-47 424l41 297h2048l-41 -297h-2048z" />
<glyph unicode="&#x2018;" horiz-adv-x="585" d="M102 1104l273 534l303 -28l-180 -506h-396z" />
<glyph unicode="&#x2019;" horiz-adv-x="585" d="M113 1094l180 505h395l-272 -534z" />
<glyph unicode="&#x201a;" horiz-adv-x="585" d="M-117 -297l180 506h396l-273 -535z" />
<glyph unicode="&#x201c;" horiz-adv-x="1042" d="M106 1104l273 534l303 -28l-180 -506h-396zM563 1104l273 534l303 -28l-181 -506h-395z" />
<glyph unicode="&#x201d;" horiz-adv-x="1040" d="M119 1094l180 505h395l-272 -534zM573 1094l181 505h395l-272 -534z" />
<glyph unicode="&#x201e;" horiz-adv-x="1044" d="M-117 -297l180 506h396l-273 -535zM342 -297l180 506h396l-273 -535z" />
<glyph unicode="&#x2022;" horiz-adv-x="1077" d="M172 514q0 186 99.5 283.5t287.5 97.5q147 0 223 -67.5t76 -198.5q0 -186 -99.5 -283.5t-289.5 -97.5q-145 0 -221 67.5t-76 198.5z" />
<glyph unicode="&#x2026;" horiz-adv-x="1738" d="M-6 156q0 262 280 262q209 0 209 -182q0 -125 -66.5 -193t-205.5 -68q-217 0 -217 181zM551 156q0 262 280 262q209 0 209 -182q0 -125 -66.5 -193t-205.5 -68q-217 0 -217 181zM1110 156q0 262 281 262q208 0 208 -182q0 -125 -66.5 -193t-205.5 -68q-217 0 -217 181z " />
<glyph unicode="&#x202f;" horiz-adv-x="400" />
<glyph unicode="&#x2039;" horiz-adv-x="573" d="M23 522l225 314h332l-228 -304l125 -321h-327z" />
<glyph unicode="&#x203a;" horiz-adv-x="571" d="M-35 211l217 317l-147 308h313l160 -310l-209 -315h-334z" />
<glyph unicode="&#x205f;" horiz-adv-x="500" />
<glyph unicode="&#x20ac;" horiz-adv-x="1357" d="M-10 567l100 332h88q23 103 60 191.5t96 167t134.5 134t179 87.5t226.5 32q500 0 451 -526l-373 -39q12 127 -15.5 177.5t-105.5 50.5q-170 0 -229 -275h342l-100 -332h-273v-47q0 -109 32 -156t97 -47q46 0 77.5 12.5t54.5 42.5t36.5 61.5t32.5 88.5l348 -55 q-25 -114 -73.5 -202.5t-107.5 -142t-132.5 -87.5t-142.5 -47t-144 -13q-506 0 -506 588v4h-153z" />
<glyph unicode="&#x2122;" horiz-adv-x="1802" d="M166 1317v166h645v-166h-219v-604h-207v604h-219zM897 715v768h231l183 -559l184 559h219v-770h-184v436l-146 -436h-161l-142 438v-436h-184z" />
<glyph unicode="&#x25fc;" horiz-adv-x="1085" d="M0 0v1085h1085v-1085h-1085z" />
</font>
</defs>
</svg>
